<svg width="0" height="0" class="hidden">
    <symbol fill="none" xmlns="http://www.w3.org/2000/svg" viewBox="0 0 24 24" id="calendar">
        <g id="SVGRepo_bgCarrier" stroke-width="0"></g>
        <g id="SVGRepo_tracerCarrier" stroke-linecap="round" stroke-linejoin="round"></g>
        <g id="SVGRepo_iconCarrier">
            <path d="M2 12C2 8.22876 2 6.34315 3.17157 5.17157C4.34315 4 6.22876 4 10 4H14C17.7712 4 19.6569 4 20.8284 5.17157C22 6.34315 22 8.22876 22 12V14C22 17.7712 22 19.6569 20.8284 20.8284C19.6569 22 17.7712 22 14 22H10C6.22876 22 4.34315 22 3.17157 20.8284C2 19.6569 2 17.7712 2 14V12Z"
                  stroke="#688272" stroke-width="1.5"></path>
            <path d="M7 4V2.5" stroke="#688272" stroke-width="1.5" stroke-linecap="round"></path>
            <path d="M17 4V2.5" stroke="#688272" stroke-width="1.5" stroke-linecap="round"></path>
            <path d="M2.5 9H21.5" stroke="#688272" stroke-width="1.5" stroke-linecap="round"></path>
            <path d="M18 17C18 17.5523 17.5523 18 17 18C16.4477 18 16 17.5523 16 17C16 16.4477 16.4477 16 17 16C17.5523 16 18 16.4477 18 17Z"
                  fill="#688272"></path>
            <path d="M18 13C18 13.5523 17.5523 14 17 14C16.4477 14 16 13.5523 16 13C16 12.4477 16.4477 12 17 12C17.5523 12 18 12.4477 18 13Z"
                  fill="#688272"></path>
            <path d="M13 17C13 17.5523 12.5523 18 12 18C11.4477 18 11 17.5523 11 17C11 16.4477 11.4477 16 12 16C12.5523 16 13 16.4477 13 17Z"
                  fill="#688272"></path>
            <path d="M13 13C13 13.5523 12.5523 14 12 14C11.4477 14 11 13.5523 11 13C11 12.4477 11.4477 12 12 12C12.5523 12 13 12.4477 13 13Z"
                  fill="#688272"></path>
            <path d="M8 17C8 17.5523 7.55228 18 7 18C6.44772 18 6 17.5523 6 17C6 16.4477 6.44772 16 7 16C7.55228 16 8 16.4477 8 17Z"
                  fill="#688272"></path>
            <path d="M8 13C8 13.5523 7.55228 14 7 14C6.44772 14 6 13.5523 6 13C6 12.4477 6.44772 12 7 12C7.55228 12 8 12.4477 8 13Z"
                  fill="#688272"></path>
        </g>
    </symbol>
    <symbol fill="none" xmlns="http://www.w3.org/2000/svg" viewBox="0 0 24 24" id="user-rounded">
        <g id="SVGRepo_bgCarrier" stroke-width="0"></g>
        <g id="SVGRepo_tracerCarrier" stroke-linecap="round" stroke-linejoin="round"></g>
        <g id="SVGRepo_iconCarrier">
            <circle cx="12" cy="6" r="4" stroke="#688272" stroke-width="1.5"></circle>
            <ellipse cx="12" cy="17" rx="7" ry="4" stroke="#688272" stroke-width="1.5"></ellipse>
        </g>
    </symbol>
    <symbol xmlns="http://www.w3.org/2000/svg" xmlns:xlink="http://www.w3.org/1999/xlink"
            viewBox="0 0 20 20" id="instagram">
        <g id="SVGRepo_bgCarrier" stroke-width="0"></g>
        <g id="SVGRepo_tracerCarrier" stroke-linecap="round" stroke-linejoin="round"></g>
        <g id="SVGRepo_iconCarrier">
            <defs></defs>
            <g id="Page-1" stroke="none" stroke-width="1">
                <g id="Dribbble-Light-Preview" transform="translate(-340.000000, -7439.000000)">
                    <g id="icons" transform="translate(56.000000, 160.000000)">
                        <path d="M289.869652,7279.12273 C288.241769,7279.19618 286.830805,7279.5942 285.691486,7280.72871 C284.548187,7281.86918 284.155147,7283.28558 284.081514,7284.89653 C284.035742,7285.90201 283.768077,7293.49818 284.544207,7295.49028 C285.067597,7296.83422 286.098457,7297.86749 287.454694,7298.39256 C288.087538,7298.63872 288.809936,7298.80547 289.869652,7298.85411 C298.730467,7299.25511 302.015089,7299.03674 303.400182,7295.49028 C303.645956,7294.859 303.815113,7294.1374 303.86188,7293.08031 C304.26686,7284.19677 303.796207,7282.27117 302.251908,7280.72871 C301.027016,7279.50685 299.5862,7278.67508 289.869652,7279.12273 M289.951245,7297.06748 C288.981083,7297.0238 288.454707,7296.86201 288.103459,7296.72603 C287.219865,7296.3826 286.556174,7295.72155 286.214876,7294.84312 C285.623823,7293.32944 285.819846,7286.14023 285.872583,7284.97693 C285.924325,7283.83745 286.155174,7282.79624 286.959165,7281.99226 C287.954203,7280.99968 289.239792,7280.51332 297.993144,7280.90837 C299.135448,7280.95998 300.179243,7281.19026 300.985224,7281.99226 C301.980262,7282.98483 302.473801,7284.28014 302.071806,7292.99991 C302.028024,7293.96767 301.865833,7294.49274 301.729513,7294.84312 C300.829003,7297.15085 298.757333,7297.47145 289.951245,7297.06748 M298.089663,7283.68956 C298.089663,7284.34665 298.623998,7284.88065 299.283709,7284.88065 C299.943419,7284.88065 300.47875,7284.34665 300.47875,7283.68956 C300.47875,7283.03248 299.943419,7282.49847 299.283709,7282.49847 C298.623998,7282.49847 298.089663,7283.03248 298.089663,7283.68956 M288.862673,7288.98792 C288.862673,7291.80286 291.150266,7294.08479 293.972194,7294.08479 C296.794123,7294.08479 299.081716,7291.80286 299.081716,7288.98792 C299.081716,7286.17298 296.794123,7283.89205 293.972194,7283.89205 C291.150266,7283.89205 288.862673,7286.17298 288.862673,7288.98792 M290.655732,7288.98792 C290.655732,7287.16159 292.140329,7285.67967 293.972194,7285.67967 C295.80406,7285.67967 297.288657,7287.16159 297.288657,7288.98792 C297.288657,7290.81525 295.80406,7292.29716 293.972194,7292.29716 C292.140329,7292.29716 290.655732,7290.81525 290.655732,7288.98792"
                              id="instagram-[#ffffff]"></path>
                    </g>
                </g>
            </g>
        </g>
    </symbol>
    <symbol xmlns="http://www.w3.org/2000/svg" xmlns:xlink="http://www.w3.org/1999/xlink"
            viewBox="0 0 256 256" id="twitter">
        <path d="m5.92 6 14.662 21.375L6.23 44h3.18l12.576-14.578 10 14.578H44L28.682 21.67 42.199 6h-3.17L27.275 19.617 17.934 6zm3.797 2h7.164l23.322 34H33.04z"
              transform="scale(5.12)" stroke-miterlimit="10" style="mix-blend-mode:normal"/>
    </symbol>
    <symbol xmlns="http://www.w3.org/2000/svg" xmlns:xlink="http://www.w3.org/1999/xlink"
            viewBox="0 -3 20 20" id="youtube">
        <g id="SVGRepo_bgCarrier" stroke-width="0"></g>
        <g id="SVGRepo_tracerCarrier" stroke-linecap="round" stroke-linejoin="round"></g>
        <g id="SVGRepo_iconCarrier">
            <defs></defs>
            <g id="Page-1" stroke="none" stroke-width="1">
                <g id="Dribbble-Light-Preview" transform="translate(-300.000000, -7442.000000)">
                    <g id="icons" transform="translate(56.000000, 160.000000)">
                        <path d="M251.988432,7291.58588 L251.988432,7285.97425 C253.980638,7286.91168 255.523602,7287.8172 257.348463,7288.79353 C255.843351,7289.62824 253.980638,7290.56468 251.988432,7291.58588 M263.090998,7283.18289 C262.747343,7282.73013 262.161634,7282.37809 261.538073,7282.26141 C259.705243,7281.91336 248.270974,7281.91237 246.439141,7282.26141 C245.939097,7282.35515 245.493839,7282.58153 245.111335,7282.93357 C243.49964,7284.42947 244.004664,7292.45151 244.393145,7293.75096 C244.556505,7294.31342 244.767679,7294.71931 245.033639,7294.98558 C245.376298,7295.33761 245.845463,7295.57995 246.384355,7295.68865 C247.893451,7296.0008 255.668037,7296.17532 261.506198,7295.73552 C262.044094,7295.64178 262.520231,7295.39147 262.895762,7295.02447 C264.385932,7293.53455 264.28433,7285.06174 263.090998,7283.18289"
                              id="youtube-[#ffffff]"></path>
                    </g>
                </g>
            </g>
        </g>
    </symbol>
    <symbol xmlns="http://www.w3.org/2000/svg" viewBox="0 0 20 20" id="facebook">
        <path d="M18.896 0H1.104C.494 0 0 .494 0 1.104v17.792C0 19.506.494 20 1.104 20h9.578v-7.745H8.076V9.237h2.606V7.01c0-2.584 1.578-3.99 3.883-3.99 1.104 0 2.052.082 2.329.119v2.7h-1.598c-1.254 0-1.496.596-1.496 1.47v1.927h2.989l-.39 3.018h-2.6V20h5.097c.61 0 1.104-.494 1.104-1.104V1.104C20 .494 19.506 0 18.896 0Z"/>
    </symbol>
    <symbol xmlns="http://www.w3.org/2000/svg" viewBox="0 0 24 24" id="letter">
        <g id="SVGRepo_bgCarrier" stroke-width="0"></g>
        <g id="SVGRepo_tracerCarrier" stroke-linecap="round" stroke-linejoin="round"></g>
        <g id="SVGRepo_iconCarrier">
            <path fill-rule="evenodd" clip-rule="evenodd"
                  d="M3.17157 5.17157C2 6.34315 2 8.22876 2 12C2 15.7712 2 17.6569 3.17157 18.8284C4.34315 20 6.22876 20 10 20H14C17.7712 20 19.6569 20 20.8284 18.8284C22 17.6569 22 15.7712 22 12C22 8.22876 22 6.34315 20.8284 5.17157C19.6569 4 17.7712 4 14 4H10C6.22876 4 4.34315 4 3.17157 5.17157ZM18.5762 7.51986C18.8413 7.83807 18.7983 8.31099 18.4801 8.57617L16.2837 10.4066C15.3973 11.1452 14.6789 11.7439 14.0448 12.1517C13.3843 12.5765 12.7411 12.8449 12 12.8449C11.2589 12.8449 10.6157 12.5765 9.95518 12.1517C9.32112 11.7439 8.60271 11.1452 7.71636 10.4066L5.51986 8.57617C5.20165 8.31099 5.15866 7.83807 5.42383 7.51986C5.68901 7.20165 6.16193 7.15866 6.48014 7.42383L8.63903 9.22291C9.57199 10.0004 10.2197 10.5384 10.7666 10.8901C11.2959 11.2306 11.6549 11.3449 12 11.3449C12.3451 11.3449 12.7041 11.2306 13.2334 10.8901C13.7803 10.5384 14.428 10.0004 15.361 9.22291L17.5199 7.42383C17.8381 7.15866 18.311 7.20165 18.5762 7.51986Z"
            ></path>
        </g>
    </symbol>
    <symbol xmlns="http://www.w3.org/2000/svg" viewBox="0 0 24 24" id="arrow-next">
        <g id="SVGRepo_bgCarrier" stroke-width="0"></g>
        <g id="SVGRepo_tracerCarrier" stroke-linecap="round" stroke-linejoin="round"></g>
        <g id="SVGRepo_iconCarrier">
            <path d="M9.71069 18.2929C10.1012 18.6834 10.7344 18.6834 11.1249 18.2929L16.0123 13.4006C16.7927 12.6195 16.7924 11.3537 16.0117 10.5729L11.1213 5.68254C10.7308 5.29202 10.0976 5.29202 9.70708 5.68254C9.31655 6.07307 9.31655 6.70623 9.70708 7.09676L13.8927 11.2824C14.2833 11.6729 14.2833 12.3061 13.8927 12.6966L9.71069 16.8787C9.32016 17.2692 9.32016 17.9023 9.71069 18.2929Z"
            ></path>
        </g>
    </symbol>
    <symbol fill="none" xmlns="http://www.w3.org/2000/svg" viewBox="0 0 24 24" id="cube">
        <g id="SVGRepo_bgCarrier" stroke-width="0"></g>
        <g id="SVGRepo_tracerCarrier" stroke-linecap="round" stroke-linejoin="round"></g>
        <g id="SVGRepo_iconCarrier">
            <path d="M12 10.2308L3.08495 7.02346M12 10.2308L20.9178 7.03406M12 10.2308V20.8791M5.13498 18.5771L10.935 20.6242C11.3297 20.7635 11.527 20.8331 11.7294 20.8608C11.909 20.8853 12.091 20.8853 12.2706 20.8608C12.473 20.8331 12.6703 20.7635 13.065 20.6242L18.865 18.5771C19.6337 18.3058 20.018 18.1702 20.3018 17.9269C20.5523 17.7121 20.7459 17.4386 20.8651 17.1308C21 16.7823 21 16.3747 21 15.5595V8.44058C21 7.62542 21 7.21785 20.8651 6.86935C20.7459 6.56155 20.5523 6.28804 20.3018 6.0732C20.018 5.82996 19.6337 5.69431 18.865 5.42301L13.065 3.37595C12.6703 3.23665 12.473 3.167 12.2706 3.13936C12.091 3.11484 11.909 3.11484 11.7294 3.13936C11.527 3.167 11.3297 3.23665 10.935 3.37595L5.13498 5.42301C4.36629 5.69431 3.98195 5.82996 3.69824 6.0732C3.44766 6.28804 3.25414 6.56155 3.13495 6.86935C3 7.21785 3 7.62542 3 8.44058V15.5595C3 16.3747 3 16.7823 3.13495 17.1308C3.25414 17.4386 3.44766 17.7121 3.69824 17.9269C3.98195 18.1702 4.36629 18.3058 5.13498 18.5771Z"
                  stroke="#1b1b1b" stroke-width="2" stroke-linecap="round" stroke-linejoin="round"></path>
        </g>
    </symbol>
    <symbol xmlns="http://www.w3.org/2000/svg" fill="#1b1b1b" viewBox="0 0 48 48" id="delivery">
        <g id="SVGRepo_bgCarrier" stroke-width="0"></g>
        <g id="SVGRepo_tracerCarrier" stroke-linecap="round" stroke-linejoin="round"></g>
        <g id="SVGRepo_iconCarrier">
            <g id="Layer_2">
                <g id="invisible_box">
                    <rect width="48" height="48" fill="none"></rect>
                </g>
                <g id="Layer_7">
                    <path d="M35.8,11a3.2,3.2,0,0,0-2.2-1H32V8a2.9,2.9,0,0,0-3-3H5A2.9,2.9,0,0,0,2,8V35a2.9,2.9,0,0,0,3,3H7.3a7,7,0,0,0,13.4,0h6.6a7,7,0,0,0,13.4,0H43a2.9,2.9,0,0,0,3-3V22.2Zm-2.7,3,7.3,8H32V14ZM14,39a3,3,0,1,1,3-3A2.9,2.9,0,0,1,14,39Zm20,0a3,3,0,1,1,3-3A2.9,2.9,0,0,1,34,39Z"></path>
                </g>
            </g>
        </g>
    </symbol>
    <symbol version="1.1" id="percent" xmlns="http://www.w3.org/2000/svg" xmlns:xlink="http://www.w3.org/1999/xlink"
            xml:space="preserve" fill="#1b1b1b" viewBox="0 0 512 512">
        <g id="SVGRepo_bgCarrier" stroke-width="0"></g>
        <g id="SVGRepo_tracerCarrier" stroke-linecap="round" stroke-linejoin="round"></g>
        <g id="SVGRepo_iconCarrier"><g><path d="M335.912,277.01c-1.322-4.684-5.491-7.454-11.161-7.454c-5.662,0-9.837,2.77-11.442,7.62 c-1.199,0.413-1.227,0.427-1.227,14.591c0,14.15,0.028,14.164,1.481,14.77c1.358,4.671,5.532,7.44,11.188,7.44 c5.664,0,9.831-2.77,11.436-7.592c1.198-0.455,1.226-0.468,1.226-14.619C337.413,277.602,337.385,277.589,335.912,277.01z"></path>
        <path d="M198.412,205.46c-1.329-4.685-5.504-7.468-11.167-7.468c-5.662,0-9.837,2.783-11.436,7.633 c-1.206,0.413-1.233,0.427-1.233,14.577c0,14.164,0.027,14.178,1.488,14.77c1.35,4.685,5.518,7.454,11.18,7.454 c5.664,0,9.831-2.77,11.436-7.592c1.199-0.454,1.227-0.468,1.227-14.632C199.908,206.052,199.88,206.039,198.412,205.46z"></path>
        <path d="M479.549,265.767c-2.398-6.283-2.398-13.241,0-19.524l19.468-51.117c4.595-12.056,0.166-25.669-10.622-32.709 l-45.806-29.912c-5.628-3.679-9.714-9.301-11.471-15.79l-14.294-52.812c-3.369-12.441-14.956-20.86-27.825-20.212l-54.63,2.728 c-6.724,0.331-13.33-1.818-18.573-6.034L273.2,6.076c-10.037-8.102-24.36-8.102-34.397,0l-42.595,34.308 c-5.242,4.216-11.849,6.365-18.573,6.034l-54.63-2.728c-12.868-0.648-24.456,7.771-27.825,20.212l-14.295,52.812 c-1.757,6.489-5.842,12.111-11.47,15.79l-45.806,29.912c-10.788,7.04-15.218,20.653-10.63,32.709l19.476,51.117 c2.397,6.283,2.397,13.241,0,19.524l-19.476,51.117c-4.588,12.042-0.159,25.668,10.63,32.71l45.806,29.912 c5.629,3.666,9.714,9.286,11.47,15.79l14.295,52.798c3.369,12.455,14.956,20.86,27.825,20.226l54.63-2.728 c6.724-0.345,13.33,1.804,18.573,6.034l42.595,34.308c10.038,8.088,24.36,8.088,34.397,0l42.595-34.308 c5.243-4.23,11.85-6.379,18.573-6.034l54.63,2.728c12.869,0.634,24.456-7.771,27.825-20.226l14.294-52.798 c1.757-6.504,5.842-12.124,11.471-15.79l45.806-29.912c10.788-7.041,15.218-20.668,10.622-32.71L479.549,265.767z M187.245,262.419 c-17.629,0-31.048-8.488-35.898-22.72c-0.476-1.364-0.876-2.205-1.206-2.907c-0.978-2.081-1.309-2.784-1.309-16.589 c0-13.778,0.331-14.481,1.309-16.548c0.33-0.717,0.73-1.557,1.198-2.921c4.857-14.219,18.277-22.706,35.906-22.706 c17.643,0,31.064,8.487,35.892,22.692c0.482,1.378,0.882,2.232,1.22,2.935c0.985,2.08,1.316,2.783,1.316,16.548 c0,13.792-0.331,14.495-1.323,16.575c-0.331,0.703-0.73,1.544-1.206,2.907C218.308,253.931,204.888,262.419,187.245,262.419z M226.85,351.054c-1.626,3.541-5.188,5.828-9.08,5.828h-7.062c-3.424,0-6.572-1.722-8.412-4.602 c-1.853-2.88-2.108-6.448-0.682-9.576l83.551-181.761c1.626-3.541,5.187-5.814,9.087-5.814h7.062c3.424,0,6.565,1.709,8.411,4.588 c1.853,2.88,2.109,6.462,0.682,9.576L226.85,351.054z M361.856,308.341c-0.338,0.703-0.73,1.544-1.206,2.894 c-4.836,14.246-18.256,22.748-35.899,22.748c-17.636,0-31.056-8.501-35.898-22.734c-0.476-1.364-0.876-2.19-1.206-2.893 c-0.978-2.08-1.309-2.783-1.309-16.589c0-13.792,0.331-14.495,1.302-16.561c0.337-0.702,0.737-1.557,1.206-2.921 c4.85-14.219,18.27-22.706,35.906-22.706c17.643,0,31.063,8.487,35.892,22.706c0.482,1.378,0.882,2.219,1.212,2.921 c0.985,2.08,1.316,2.783,1.316,16.561C363.172,305.558,362.84,306.261,361.856,308.341z"></path></g></g>
    </symbol>
    <symbol fill="none" xmlns="http://www.w3.org/2000/svg" viewBox="0 0 24 24" id="wallet-money">
        <g id="SVGRepo_bgCarrier" stroke-width="0"></g>
        <g id="SVGRepo_tracerCarrier" stroke-linecap="round" stroke-linejoin="round"></g>
        <g id="SVGRepo_iconCarrier">
            <path fill-rule="evenodd" clip-rule="evenodd"
                  d="M20.4105 9.86058C20.3559 9.8571 20.2964 9.85712 20.2348 9.85715L20.2194 9.85715H17.8015C15.8086 9.85715 14.1033 11.4382 14.1033 13.5C14.1033 15.5618 15.8086 17.1429 17.8015 17.1429H20.2194L20.2348 17.1429C20.2964 17.1429 20.3559 17.1429 20.4105 17.1394C21.22 17.0879 21.9359 16.4495 21.9961 15.5577C22.0001 15.4992 22 15.4362 22 15.3778L22 15.3619V11.6381L22 11.6222C22 11.5638 22.0001 11.5008 21.9961 11.4423C21.9359 10.5506 21.22 9.91209 20.4105 9.86058ZM17.5872 14.4714C18.1002 14.4714 18.5162 14.0365 18.5162 13.5C18.5162 12.9635 18.1002 12.5286 17.5872 12.5286C17.0741 12.5286 16.6581 12.9635 16.6581 13.5C16.6581 14.0365 17.0741 14.4714 17.5872 14.4714Z"
                  fill="#1b1b1b"></path>
            <path fill-rule="evenodd" clip-rule="evenodd"
                  d="M20.2341 18.6C20.3778 18.5963 20.4866 18.7304 20.4476 18.8699C20.2541 19.562 19.947 20.1518 19.4542 20.6485C18.7329 21.3755 17.8183 21.6981 16.6882 21.8512C15.5902 22 14.1872 22 12.4158 22H10.3794C8.60803 22 7.20501 22 6.10697 21.8512C4.97692 21.6981 4.06227 21.3755 3.34096 20.6485C2.61964 19.9215 2.29953 18.9997 2.1476 17.8608C1.99997 16.7541 1.99999 15.3401 2 13.5548V13.4452C1.99998 11.6599 1.99997 10.2459 2.1476 9.13924C2.29953 8.00031 2.61964 7.07848 3.34096 6.35149C4.06227 5.62451 4.97692 5.30188 6.10697 5.14876C7.205 4.99997 8.60802 4.99999 10.3794 5L12.4158 5C14.1872 4.99998 15.5902 4.99997 16.6882 5.14876C17.8183 5.30188 18.7329 5.62451 19.4542 6.35149C19.947 6.84817 20.2541 7.43804 20.4476 8.13012C20.4866 8.26959 20.3778 8.40376 20.2341 8.4L17.8015 8.40001C15.0673 8.40001 12.6575 10.5769 12.6575 13.5C12.6575 16.4231 15.0673 18.6 17.8015 18.6L20.2341 18.6ZM5.61446 8.88572C5.21522 8.88572 4.89157 9.21191 4.89157 9.61429C4.89157 10.0167 5.21522 10.3429 5.61446 10.3429H9.46988C9.86912 10.3429 10.1928 10.0167 10.1928 9.61429C10.1928 9.21191 9.86912 8.88572 9.46988 8.88572H5.61446Z"
                  fill="#1b1b1b"></path>
            <path d="M7.77668 4.02439L9.73549 2.58126C10.7874 1.80625 12.2126 1.80625 13.2645 2.58126L15.2336 4.03197C14.4103 3.99995 13.4909 3.99998 12.4829 4H10.3123C9.39123 3.99998 8.5441 3.99996 7.77668 4.02439Z"
                  fill="#1b1b1b"></path>
        </g>
    </symbol>
    <symbol fill="none" xmlns="http://www.w3.org/2000/svg" stroke="#ffffff" viewBox="0 0 24 24" id="arrow">
        <g id="SVGRepo_bgCarrier" stroke-width="0"></g>
        <g id="SVGRepo_tracerCarrier" stroke-linecap="round" stroke-linejoin="round"></g>
        <g id="SVGRepo_iconCarrier">
            <path d="M6 12H18M18 12L13 7M18 12L13 17" stroke="#ffffff" stroke-width="2" stroke-linecap="round"
                  stroke-linejoin="round"></path>
        </g>
    </symbol>
    <symbol fill="none" xmlns="http://www.w3.org/2000/svg" viewBox="0 0 24 24" id="play">
        <g id="SVGRepo_bgCarrier" stroke-width="0"></g>
        <g id="SVGRepo_tracerCarrier" stroke-linecap="round" stroke-linejoin="round"></g>
        <g id="SVGRepo_iconCarrier">
            <path d="M21.4086 9.35258C23.5305 10.5065 23.5305 13.4935 21.4086 14.6474L8.59662 21.6145C6.53435 22.736 4 21.2763 4 18.9671L4 5.0329C4 2.72368 6.53435 1.26402 8.59661 2.38548L21.4086 9.35258Z"
                  fill="#000"></path>
        </g>
    </symbol>
    <symbol xmlns="http://www.w3.org/2000/svg" viewBox="0 0 14 14" fill="688272" id="furniture-logo">
        <path d="M3 2C2 2 1 3 1 4c2 0 3 1.576 3 3h6c0-1.518 1-3 3-3 0-1-1-2-2-2zM1 5C0 5 0 6 0 6c0 .518.482 1 1 1v3c0 .645.423 1 1 1h.5s0 1 1 1 1-1 1-1h5s0 1 1 1 1-1 1-1h.5c.51 0 1-.484 1-1V7c.495 0 1-.388 1-1 0 0 0-1-1-1s-2 1-2 3H3c0-2-1-3-2-3z"
              style="fill:#688272;fill-opacity:1;stroke:none"/>
    </symbol>
    <symbol fill="none" xmlns="http://www.w3.org/2000/svg" stroke="#688272" viewBox="0 0 24 24" id="chair">
        <g id="SVGRepo_bgCarrier" stroke-width="0"></g>
        <g id="SVGRepo_tracerCarrier" stroke-linecap="round" stroke-linejoin="round"></g>
        <g id="SVGRepo_iconCarrier">
            <path d="M7.57198 3.06161C6.9903 3.74872 6.86962 4.75442 6.62825 6.76581L6.53734 7.52342C6.28684 9.61087 6.1616 10.6546 6.7584 11.3273C7.35521 12 8.40642 12 10.5088 12H11.25V13.75H7C6.67904 13.75 6.37825 13.8364 6.11965 13.9872L5.84069 13.1504C5.77196 12.9441 5.72347 12.7986 5.63468 12.6071C5.5488 12.4218 5.50507 12.3485 5.43659 12.2359C5.15168 11.7674 4.78052 11.3604 4.17911 11.0952C3.61274 10.8454 2.90513 10.75 2 10.75C1.58579 10.75 1.25 11.0858 1.25 11.5C1.25 11.9142 1.58579 12.25 2 12.25C2.82738 12.25 3.28947 12.3422 3.57378 12.4676C3.82305 12.5776 3.98353 12.7334 4.15499 13.0153C4.18539 13.0653 4.19799 13.0863 4.21147 13.111C4.22448 13.135 4.24208 13.1695 4.2738 13.2379C4.32447 13.3472 4.34889 13.4184 4.42333 13.6417L5.28849 16.2372C5.32093 16.3345 5.37138 16.4207 5.43491 16.4934C5.83324 17.5212 6.83152 18.25 8 18.25H11.25V19.416C10.0934 19.741 9.16984 20.6188 8.78849 21.7628C8.6575 22.1558 8.86987 22.5805 9.26283 22.7115C9.65579 22.8425 10.0805 22.6301 10.2115 22.2372C10.3885 21.7061 10.7646 21.2729 11.25 21.0206V22C11.25 22.4142 11.5858 22.75 12 22.75C12.4142 22.75 12.75 22.4142 12.75 22V21.0206C13.2354 21.2729 13.6115 21.7061 13.7885 22.2372C13.9195 22.6301 14.3442 22.8425 14.7372 22.7115C15.1301 22.5805 15.3425 22.1558 15.2115 21.7628C14.8302 20.6188 13.9066 19.741 12.75 19.416V18.25H16C17.1685 18.25 18.1668 17.5212 18.5651 16.4934C18.6286 16.4207 18.6791 16.3345 18.7115 16.2372L19.5767 13.6417C19.6511 13.4184 19.6755 13.3472 19.7262 13.2379C19.7579 13.1695 19.7755 13.135 19.7885 13.111C19.802 13.0863 19.8146 13.0653 19.845 13.0153C20.0165 12.7334 20.177 12.5776 20.4262 12.4676C20.7105 12.3422 21.1726 12.25 22 12.25C22.4142 12.25 22.75 11.9142 22.75 11.5C22.75 11.0858 22.4142 10.75 22 10.75C21.0949 10.75 20.3873 10.8454 19.8209 11.0952C19.2195 11.3604 18.8483 11.7674 18.5634 12.2359C18.4949 12.3485 18.4512 12.4218 18.3653 12.6071C18.2765 12.7986 18.228 12.9441 18.1593 13.1504L17.8804 13.9872C17.6217 13.8364 17.321 13.75 17 13.75H12.75V12H13.4914C15.5939 12 16.6451 12 17.2419 11.3273C17.8387 10.6546 17.7134 9.61087 17.463 7.52342L17.372 6.76581C17.1307 4.75442 17.01 3.74872 16.4283 3.06161C16.2437 2.84355 16.0289 2.65298 15.7904 2.49567C15.0389 2 14.026 2 12.0001 2C9.97432 2 8.96141 2 8.2099 2.49567C7.97139 2.65298 7.75659 2.84355 7.57198 3.06161Z"
                  fill="#688272"></path>
        </g>
    </symbol>
    <symbol fill="none" xmlns="http://www.w3.org/2000/svg" stroke="#ffffff" viewBox="0 0 24 24" id="basket-shopping">
        <g id="SVGRepo_bgCarrier" stroke-width="0"></g>
        <g id="SVGRepo_tracerCarrier" stroke-linecap="round" stroke-linejoin="round"></g>
        <g id="SVGRepo_iconCarrier">
            <path d="M20 10L18.5145 17.4276C18.3312 18.3439 18.2396 18.8021 18.0004 19.1448C17.7894 19.447 17.499 19.685 17.1613 19.8326C16.7783 20 16.3111 20 15.3766 20H8.62337C7.6889 20 7.22166 20 6.83869 19.8326C6.50097 19.685 6.2106 19.447 5.99964 19.1448C5.76041 18.8021 5.66878 18.3439 5.48551 17.4276L4 10M3 10H21M8 13V13.01M16 13V13.01M6 10L9 4M18 10L15 4"
                  stroke="#ffffff" stroke-width="2" stroke-linecap="round" stroke-linejoin="round"></path>
        </g>
    </symbol>
    <symbol fill="none" xmlns="http://www.w3.org/2000/svg" stroke="#ffffff" viewBox="0 0 24 24" id="search">
        <g id="SVGRepo_bgCarrier" stroke-width="0"></g>
        <g id="SVGRepo_tracerCarrier" stroke-linecap="round" stroke-linejoin="round"></g>
        <g id="SVGRepo_iconCarrier">
            <path d="M16.6725 16.6412L21 21M19 11C19 15.4183 15.4183 19 11 19C6.58172 19 3 15.4183 3 11C3 6.58172 6.58172 3 11 3C15.4183 3 19 6.58172 19 11Z"
                  stroke="#ffffff" stroke-width="2" stroke-linecap="round" stroke-linejoin="round"></path>
        </g>
    </symbol>
    <symbol fill="none" xmlns="http://www.w3.org/2000/svg" stroke="#ffffff" viewBox="0 0 24 24" id="menu">
        <g id="SVGRepo_bgCarrier" stroke-width="0"></g>
        <g id="SVGRepo_tracerCarrier" stroke-linecap="round" stroke-linejoin="round"></g>
        <g id="SVGRepo_iconCarrier">
            <path d="M4 6H20M4 12H20M4 18H20" stroke="#ffffff" stroke-width="2" stroke-linecap="round"
                  stroke-linejoin="round"></path>
        </g>
    </symbol>
    <symbol viewBox="0 0 24 24" xmlns="http://www.w3.org/2000/svg" id="menu-close">
        <path d="M20.746 3.329a1 1 0 0 0-1.415 0l-7.294 7.294-7.294-7.294a1 1 0 1 0-1.414 1.414l7.294 7.294-7.294 7.294a1 1 0 0 0 1.414 1.415l7.294-7.295 7.294 7.295a1 1 0 0 0 1.415-1.415l-7.295-7.294 7.295-7.294a1 1 0 0 0 0-1.414Z"/>
    </symbol>
    <symbol viewBox="0 0 512 512" xmlns="http://www.w3.org/2000/svg" preserveAspectRatio="none" id="promo-label">
        <g>
            <path d="M 121.5,121.5  C 211.89,121.008 302.224,121.508 392.5,123C 396.721,126.605 399.554,131.105 401,136.5C 427.394,207.68 453.394,279.013 479,350.5C 481.782,357.844 483.949,365.344 485.5,373C 485.146,381.032 481.146,386.365 473.5,389C 328.167,389.667 182.833,389.667 37.5,389C 29.8539,386.365 25.8539,381.032 25.5,373C 53.0142,290.458 82.5142,208.625 114,127.5C 116.134,124.847 118.634,122.847 121.5,121.5 Z"/>
        </g>
    </symbol>
    <symbol viewBox="0 0 64 64" xmlns="http://www.w3.org/2000/svg" id="star">
        <path d="M62.799 23.737a3.941 3.941 0 0 0-3.139-2.642l-16.969-2.593-7.622-16.237a3.938 3.938 0 0 0-7.13 0l-7.623 16.238-16.969 2.593a3.937 3.937 0 0 0-2.222 6.642l12.392 12.707-2.935 17.977a3.94 3.94 0 0 0 5.797 4.082l15.126-8.365 15.126 8.365a3.94 3.94 0 0 0 5.796-4.082l-2.935-17.977 12.393-12.707a3.942 3.942 0 0 0 .914-4.001z"/>
    </symbol>
</svg>

